<svg width="1200" height="800" viewBox="0 0 1200 800" fill="none" xmlns="http://www.w3.org/2000/svg">
  <defs>
    <linearGradient id="bg" x1="0" y1="0" x2="1200" y2="800" gradientUnits="userSpaceOnUse">
      <stop stop-color="#160f14"/>
      <stop offset="0.55" stop-color="#2b1721"/>
      <stop offset="1" stop-color="#3a1b2b"/>
    </linearGradient>
    <radialGradient id="glow1" cx="0" cy="0" r="1" gradientUnits="userSpaceOnUse" gradientTransform="translate(950 180) rotate(136.225) scale(530 350)">
      <stop stop-color="#D44A6E" stop-opacity="0.5"/>
      <stop offset="1" stop-color="#D44A6E" stop-opacity="0"/>
    </radialGradient>
    <radialGradient id="glow2" cx="0" cy="0" r="1" gradientUnits="userSpaceOnUse" gradientTransform="translate(290 640) rotate(42.181) scale(490 330)">
      <stop stop-color="#C9A96E" stop-opacity="0.4"/>
      <stop offset="1" stop-color="#C9A96E" stop-opacity="0"/>
    </radialGradient>
  </defs>

  <rect width="1200" height="800" rx="40" fill="url(#bg)"/>
  <rect width="1200" height="800" rx="40" fill="url(#glow1)"/>
  <rect width="1200" height="800" rx="40" fill="url(#glow2)"/>

  <g opacity="0.22" stroke="#F5F5F5">
    <path d="M130 630C235 530 450 560 570 470C710 365 860 290 1045 310" stroke-width="2"/>
    <path d="M165 680C265 575 470 610 590 520C730 415 875 340 1060 360" stroke-width="1.5"/>
    <circle cx="880" cy="250" r="105" stroke-width="2"/>
    <circle cx="880" cy="250" r="62" stroke-width="1.5"/>
  </g>

  <g fill="#F5F5F5" opacity="0.85">
    <rect x="100" y="120" width="330" height="24" rx="12"/>
    <rect x="100" y="158" width="250" height="18" rx="9" opacity="0.65"/>
    <rect x="100" y="192" width="180" height="18" rx="9" opacity="0.5"/>
  </g>

  <g transform="translate(100 620)">
    <rect width="270" height="64" rx="14" fill="#F5F5F5" fill-opacity="0.08" stroke="#F5F5F5" stroke-opacity="0.18"/>
    <circle cx="42" cy="32" r="14" fill="#F5F5F5" fill-opacity="0.18"/>
    <rect x="70" y="22" width="160" height="8" rx="4" fill="#F5F5F5" fill-opacity="0.45"/>
    <rect x="70" y="36" width="100" height="8" rx="4" fill="#F5F5F5" fill-opacity="0.3"/>
  </g>
</svg>
